<?xml version="1.0" encoding="UTF-8"?>
<svg id="Camada_1" data-name="Camada 1" xmlns="http://www.w3.org/2000/svg" viewBox="0 0 250 250">
  <defs>
    <style>
      .cls-1 {
        fill: #fee601;
        stroke-width: 0px;
      }
    </style>
  </defs>
  <path class="cls-1" d="M118.27,190.13c-16.32,0-32.64-.1-48.95.07-4.1.04-5.02-.68-2.94-4.62,3.56-6.76,6.75-13.73,9.83-20.72,1.27-2.89,3.02-3.77,6.1-3.75,24.64.12,49.29.09,73.93.01,1.63,0,4.21,1.18,4.75-1.18.41-1.79-.7-3.93-2.46-5.18-1.48-1.05-3.02-2.06-4.63-2.88-12.94-6.51-25.88-12.99-38.85-19.43-5.65-2.8-8.26-7.51-8.43-13.58-.17-5.99-.12-11.99.06-17.98.09-2.97-1.27-4.07-3.95-4.66-6.42-1.42-12.91-.73-19.37-.97-17.05-.62-19.31-10.4-17.31-22.47.68-4.08,2.45-7.94,5.03-11.3.91-1.18,1.96-2.74,3.46-.77,4.93,6.49,12.31,6.01,19.1,6.39,12.58.71,19.69,8.03,21.16,20.66,1.09,9.37-.72,18.51-.33,27.78.21,5,1.89,8.13,6.73,9.75,3.61,1.21,7.09,2.85,10.54,4.47,3.24,1.52,5.27,1.28,6.89-2.49,3.86-9.01,8.01-17.9,12.37-26.68,1.85-3.72,1.05-5.14-2.9-5.34-3.75-.19-7.07-1.39-10-3.89-6.7-5.72-5.32-12.98-3.9-20.17.44-2.23,1.72-4.3,2.6-6.45,1.54-3.74,3.34-4.36,6.57-1.29,3.4,3.25,8.1,3.53,12.58,3.75,4.3.21,8.61-.13,12.87,1.04,15.44,4.22,17.2,13.1,15.22,25.62-.51,3.2-2.21,6.24-3.55,9.27-.9,2.01-2.22,2.59-3.39.11-2.94-6.26-8.9-6.84-14.63-7.8-1.88-.32-2.62,1.11-3.24,2.52-4.97,11.24-9.88,22.51-14.94,33.71-1.03,2.28-.37,3.34,1.7,4.21,7.2,3.02,14.31,6.25,21.55,9.14,12.94,5.17,16.94,13.35,12.34,26.36-1.71,4.84-4.16,9.42-6.01,14.22-1.32,3.44-3.4,4.66-7.15,4.61-16.15-.2-32.3-.09-48.45-.09Z"/>
</svg>